<svg xmlns="http://www.w3.org/2000/svg">
    <!-- Primary Toolbar -->
    <symbol id="icon-select" viewBox="0 0 24 24"><path fill="currentColor" d="M4 4l16 5.33-6.67 2.34-2.33 6.66L4 4z"/></symbol>
    <symbol id="icon-pan" viewBox="0 0 24 24"><path fill="none" stroke="currentColor" stroke-width="1.5" stroke-linecap="round" stroke-linejoin="round" d="M12 2v20M2 12h20M7 7l-5 5 5 5M17 7l5 5-5 5"/></symbol>
    <symbol id="icon-drawing-tools" viewBox="0 0 24 24"><path fill="none" stroke="currentColor" stroke-width="1.5" stroke-linecap="round" stroke-linejoin="round" d="M12 20h9"/><path fill="none" stroke="currentColor" stroke-width="1.5" stroke-linecap="round" stroke-linejoin="round" d="M16.5 3.5a2.121 2.121 0 0 1 3 3L7 19l-4 1 1-4L16.5 3.5z"/></symbol>
    <symbol id="icon-modification-tools" viewBox="0 0 24 24"><path fill="none" stroke="currentColor" stroke-width="1.5" stroke-linecap="round" stroke-linejoin="round" d="M11 4H4a2 2 0 0 0-2 2v14a2 2 0 0 0 2 2h14a2 2 0 0 0 2-2v-7"/><path fill="none" stroke="currentColor" stroke-width="1.5" stroke-linecap="round" stroke-linejoin="round" d="M18.5 2.5a2.121 2.121 0 0 1 3 3L12 15l-4 1 1-4 9.5-9.5z"/></symbol>
    <symbol id="icon-precision-tools" viewBox="0 0 24 24"><path fill="none" stroke="currentColor" stroke-width="1.5" stroke-linecap="round" stroke-linejoin="round" d="M4 12v-6a2 2 0 0 1 2-2h12a2 2 0 0 1 2 2v6"/><path fill="none" stroke="currentColor" stroke-width="1.5" stroke-linecap="round" stroke-linejoin="round" d="M4 12a8 8 0 1 0 16 0"/><path fill="none" stroke="currentColor" stroke-width="1.5" stroke-linecap="round" stroke-linejoin="round" d="M12 2v4"/><path fill="none" stroke="currentColor" stroke-width="1.5" stroke-linecap="round" stroke-linejoin="round" d="M12 16v4"/><path fill="none" stroke="currentColor" stroke-width="1.5" stroke-linecap="round" stroke-linejoin="round" d="M22 12h-4"/><path fill="none" stroke="currentColor" stroke-width="1.5" stroke-linecap="round" stroke-linejoin="round" d="M6 12H2"/></symbol>
    <symbol id="icon-annotations-tools" viewBox="0 0 24 24"><path fill="none" stroke="currentColor" stroke-width="1.5" stroke-linecap="round" stroke-linejoin="round" d="M4 20V4h16v16"/><path fill="none" stroke="currentColor" stroke-width="1.5" stroke-linecap="round" stroke-linejoin="round" d="M12 8v8 M9 12h6"/></symbol>
    <symbol id="icon-file-tools" viewBox="0 0 24 24"><path fill="none" stroke="currentColor" stroke-width="1.5" stroke-linecap="round" stroke-linejoin="round" d="M14 2H6a2 2 0 0 0-2 2v16a2 2 0 0 0 2 2h12a2 2 0 0 0 2-2V8z"/><polyline fill="none" stroke="currentColor" stroke-width="1.5" stroke-linecap="round" stroke-linejoin="round" points="14 2 14 8 20 8"/><path fill="none" stroke="currentColor" stroke-width="1.5" stroke-linecap="round" stroke-linejoin="round" d="m18 6-1-1-1 1"/><path fill="none" stroke="currentColor" stroke-width="1.5" stroke-linecap="round" stroke-linejoin="round" d="m19 4-1-1-1 1"/><path fill="none" stroke="currentColor" stroke-width="1.5" stroke-linecap="round" stroke-linejoin="round" d="m20 6-1-1-1 1"/></symbol>
    <symbol id="icon-layers" viewBox="0 0 24 24"><polygon fill="none" stroke="currentColor" stroke-width="1.5" stroke-linecap="round" stroke-linejoin="round" points="12 2 2 7 12 12 22 7 12 2"/><polyline fill="none" stroke="currentColor" stroke-width="1.5" stroke-linecap="round" stroke-linejoin="round" points="2 17 12 22 22 17"/><polyline fill="none" stroke="currentColor" stroke-width="1.5" stroke-linecap="round" stroke-linejoin="round" points="2 12 12 17 22 12"/></symbol>
    <symbol id="icon-properties" viewBox="0 0 24 24"><line fill="none" stroke="currentColor" stroke-width="1.5" stroke-linecap="round" stroke-linejoin="round" x1="12" y1="20" x2="12" y2="4"/><line fill="none" stroke="currentColor" stroke-width="1.5" stroke-linecap="round" stroke-linejoin="round" x1="4" y1="12" x2="4" y2="4"/><line fill="none" stroke="currentColor" stroke-width="1.5" stroke-linecap="round" stroke-linejoin="round" x1="20" y1="20" x2="20" y2="12"/><line fill="none" stroke="currentColor" stroke-width="1.5" stroke-linecap="round" stroke-linejoin="round" x1="10" y1="20" x2="14" y2="20"/><line fill="none" stroke="currentColor" stroke-width="1.5" stroke-linecap="round" stroke-linejoin="round" x1="2" y1="12" x2="6" y2="12"/><line fill="none" stroke="currentColor" stroke-width="1.5" stroke-linecap="round" stroke-linejoin="round" x1="18" y1="12" x2="22" y2="12"/></symbol>
    <symbol id="icon-style-manager" viewBox="0 0 24 24"><path fill="none" stroke="currentColor" stroke-width="1.5" stroke-linecap="round" stroke-linejoin="round" d="M20.59 13.41l-7.17 7.17a2 2 0 0 1-2.83 0L2 12V2h10l8.59 8.59a2 2 0 0 1 0 2.82z"/><line fill="none" stroke="currentColor" stroke-width="1.5" stroke-linecap="round" stroke-linejoin="round" x1="7" y1="7" x2="7.01" y2="7"/></symbol>
    <symbol id="icon-dimension-style-manager" viewBox="0 0 24 24"><path fill="none" stroke="currentColor" stroke-width="1.5" stroke-linecap="round" stroke-linejoin="round" d="M5 21V3M19 21V3M3 12h18M5 5l-2-2 2-2M19 5l2-2-2-2M5 19l-2 2 2 2M19 19l2 2-2 2"/></symbol>
    <symbol id="icon-bug" viewBox="0 0 24 24"><path fill="none" stroke="currentColor" stroke-width="1.5" stroke-linecap="round" stroke-linejoin="round" d="M12 20h-4a2 2 0 0 1-2-2V6a2 2 0 0 1 2-2h8a2 2 0 0 1 2 2v4 M19 19l-4-4m0 4l4-4 M8 2h8 M4 6h12 M4 10h12 M4 14h8"/></symbol>
    <symbol id="icon-undo" viewBox="0 0 24 24"><path fill="none" stroke="currentColor" stroke-width="1.5" stroke-linecap="round" stroke-linejoin="round" d="M21 13v-2a4 4 0 0 0-4-4H8"/><polyline fill="none" stroke="currentColor" stroke-width="1.5" stroke-linecap="round" stroke-linejoin="round" points="6 11 3 8 6 5"/></symbol>
    <symbol id="icon-redo" viewBox="0 0 24 24"><path fill="none" stroke="currentColor" stroke-width="1.5" stroke-linecap="round" stroke-linejoin="round" d="M3 13v-2a4 4 0 0 1 4-4h11"/><polyline fill="none" stroke="currentColor" stroke-width="1.5" stroke-linecap="round" stroke-linejoin="round" points="18 11 21 8 18 5"/></symbol>
    <symbol id="icon-3d-view" viewBox="0 0 24 24"><path fill="none" stroke="currentColor" stroke-width="1.5" stroke-linecap="round" stroke-linejoin="round" d="M21 16V8a2 2 0 0 0-1-1.73l-7-4a2 2 0 0 0-2 0l-7 4A2 2 0 0 0 3 8v8a2 2 0 0 0 1 1.73l7 4a2 2 0 0 0 2 0l7-4A2 2 0 0 0 21 16z"/><path fill="none" stroke="currentColor" stroke-width="1.5" stroke-linecap="round" stroke-linejoin="round" d="m3.27 6.96 8.73 5.04 8.73-5.04M12 22.08V12"/></symbol>

    <!-- Drawing Toolbar -->
    <symbol id="icon-sketch" viewBox="0 0 24 24"><path fill="none" stroke="currentColor" stroke-width="1.5" stroke-linecap="round" stroke-linejoin="round" d="M3 3h18v18H3z"/><path fill="none" stroke="currentColor" stroke-width="1.5" stroke-linecap="round" stroke-linejoin="round" d="m16.2 6.8-8.4 8.4-3.3-1.1 1.1-3.3 8.4-8.4 2.2 2.2zM12.5 10.5l3.2 3.2"/></symbol>
    <symbol id="icon-finish-sketch" viewBox="0 0 24 24"><path fill="none" stroke="currentColor" stroke-width="2" stroke-linecap="round" stroke-linejoin="round" d="M20 6 9 17l-5-5"/></symbol>
    <symbol id="icon-constraint-horizontal" viewBox="0 0 24 24"><path fill="none" stroke="currentColor" stroke-width="2" stroke-linecap="round" d="M3 12h18"/></symbol>
    <symbol id="icon-constraint-vertical" viewBox="0 0 24 24"><path fill="none" stroke="currentColor" stroke-width="2" stroke-linecap="round" d="M12 3v18"/></symbol>
    <symbol id="icon-constraint-parallel" viewBox="0 0 24 24"><path fill="none" stroke="currentColor" stroke-width="2" stroke-linecap="round" d="M5 20L12 4M12 20L19 4"/></symbol>
    <symbol id="icon-constraint-perpendicular" viewBox="0 0 24 24"><path fill="none" stroke="currentColor" stroke-width="2" stroke-linecap="round" d="M5 19H19M12 5V19"/></symbol>
    <symbol id="icon-constraint-angle" viewBox="0 0 24 24"><path d="M4 19 L20 19 M5 19 L12 5" stroke="currentColor" stroke-width="1.5" stroke-linecap="round" stroke-linejoin="round" fill="none"/><path d="M8 19 A4 4 0 0 1 11.5 16.5" stroke="currentColor" stroke-width="1" fill="none"/></symbol>
    <symbol id="icon-constraint-length" viewBox="0 0 24 24"><path fill="none" stroke="currentColor" stroke-width="2" d="M4 12 L20 12 M4 10 L4 14 M20 10 L20 14"/></symbol>
    <symbol id="icon-constraint-tangent" viewBox="0 0 24 24"><path fill="none" stroke="currentColor" stroke-width="1.5" stroke-linecap="round" stroke-linejoin="round" d="M18 4v16"/><circle fill="none" stroke="currentColor" stroke-width="1.5" stroke-linecap="round" stroke-linejoin="round" cx="10" cy="14" r="5"/></symbol>
    <symbol id="icon-wall-exterior" viewBox="0 0 24 24"><line fill="none" stroke="currentColor" stroke-width="3" stroke-linecap="round" stroke-linejoin="round" x1="4" y1="12" x2="20" y2="12"/></symbol>
    <symbol id="icon-wall-interior" viewBox="0 0 24 24"><line fill="none" stroke="currentColor" stroke-width="2" stroke-linecap="round" stroke-linejoin="round" x1="4" y1="12" x2="20" y2="12"/></symbol>
    <symbol id="icon-wall-partition" viewBox="0 0 24 24"><line fill="none" stroke="currentColor" stroke-width="1" stroke-linecap="round" stroke-linejoin="round" x1="4" y1="12" x2="20" y2="12"/></symbol>
    <symbol id="icon-door" viewBox="0 0 24 24"><path fill="none" stroke="currentColor" stroke-width="1.5" stroke-linecap="round" stroke-linejoin="round" d="M4 20V4"/><path fill="none" stroke="currentColor" stroke-width="1.5" stroke-linecap="round" stroke-linejoin="round" d="M20 20V4"/><path fill="none" stroke="currentColor" stroke-width="1.5" stroke-linecap="round" stroke-linejoin="round" d="M4 4h16"/><path fill="none" stroke="currentColor" stroke-width="1.5" stroke-linecap="round" stroke-linejoin="round" d="M4 20h16"/><path fill="none" stroke="currentColor" stroke-width="1.5" stroke-linecap="round" stroke-linejoin="round" d="M8 4v12"/><path fill="none" stroke="currentColor" stroke-width="1.5" stroke-linecap="round" stroke-linejoin="round" d="M8 16a6 6 0 0 0 6-6"/></symbol>
    <symbol id="icon-window" viewBox="0 0 24 24"><path fill="none" stroke="currentColor" stroke-width="1.5" stroke-linecap="round" stroke-linejoin="round" d="M2 12h20"/><path fill="none" stroke="currentColor" stroke-width="1.5" stroke-linecap="round" stroke-linejoin="round" d="M12 2v20"/><path fill="none" stroke="currentColor" stroke-width="1.5" stroke-linecap="round" stroke-linejoin="round" d="M2 12V6a2 2 0 0 1 2-2h16a2 2 0 0 1 2 2v12a2 2 0 0 1-2 2H4a2 2 0 0 1-2-2v-6z"/></symbol>
    <symbol id="icon-stairs" viewBox="0 0 24 24"><path fill="none" stroke="currentColor" stroke-width="1.5" stroke-linecap="round" stroke-linejoin="round" d="M3 18h4v-4h4v-4h4V6h4"/></symbol>
    <symbol id="icon-evacuation-path" viewBox="0 0 24 24"><path fill="none" stroke="currentColor" stroke-width="1.5" stroke-linecap="round" stroke-linejoin="round" d="M12 12H3"/><path fill="none" stroke="currentColor" stroke-width="1.5" stroke-linecap="round" stroke-linejoin="round" d="M7 7l-4 5 4 5"/><path fill="none" stroke="currentColor" stroke-width="1.5" stroke-linecap="round" stroke-linejoin="round" d="M21 12h-3"/><circle fill="none" stroke="currentColor" stroke-width="1.5" stroke-linecap="round" stroke-linejoin="round" cx="15" cy="6" r="1"/><path fill="none" stroke="currentColor" stroke-width="1.5" stroke-linecap="round" stroke-linejoin="round" d="M15 20v-7l-2-2 4-3 1 4"/></symbol>
    <symbol id="icon-emergency-evacuation-path" viewBox="0 0 24 24"><path fill="none" stroke="currentColor" stroke-width="1.5" stroke-linecap="round" stroke-linejoin="round" stroke-dasharray="4 2" d="M12 12H3"/><path fill="none" stroke="currentColor" stroke-width="1.5" stroke-linecap="round" stroke-linejoin="round" stroke-dasharray="4 2" d="M7 7l-4 5 4 5"/><path fill="none" stroke="currentColor" stroke-width="1.5" stroke-linecap="round" stroke-linejoin="round" stroke-dasharray="4 2" d="M21 12h-3"/><circle fill="none" stroke="currentColor" stroke-width="1.5" stroke-linecap="round" stroke-linejoin="round" cx="15" cy="6" r="1"/><path fill="none" stroke="currentColor" stroke-width="1.5" stroke-linecap="round" stroke-linejoin="round" stroke-dasharray="4 2" d="M15 20v-7l-2-2 4-3 1 4"/></symbol>
    <symbol id="icon-text" viewBox="0 0 24 24"><path fill="none" stroke="currentColor" stroke-width="1.5" stroke-linecap="round" stroke-linejoin="round" d="M4 7V6h16v1"/><path fill="none" stroke="currentColor" stroke-width="1.5" stroke-linecap="round" stroke-linejoin="round" d="M12 6v14"/><path fill="none" stroke="currentColor" stroke-width="1.5" stroke-linecap="round" stroke-linejoin="round" d="M8 20h8"/></symbol>
    <symbol id="icon-polyline" viewBox="0 0 24 24"><path fill="none" stroke="currentColor" stroke-width="1.5" stroke-linecap="round" stroke-linejoin="round" d="M3 21L8 8l4 8L21 3"/></symbol>
    <symbol id="icon-circle" viewBox="0 0 24 24"><circle fill="none" stroke="currentColor" stroke-width="1.5" stroke-linecap="round" stroke-linejoin="round" cx="12" cy="12" r="9"/></symbol>
    <symbol id="icon-arc" viewBox="0 0 24 24"><path fill="none" stroke="currentColor" stroke-width="1.5" stroke-linecap="round" stroke-linejoin="round" d="M21 12a9 9 0 1 0-9 9"/></symbol>
    <symbol id="icon-hatch" viewBox="0 0 24 24"><path fill="none" stroke="currentColor" stroke-width="1" stroke-linecap="round" stroke-linejoin="round" d="M21 3H3v18h18V3z"/><path fill="none" stroke="currentColor" stroke-width="1" stroke-linecap="round" stroke-linejoin="round" d="M7 21L21 7"/><path fill="none" stroke="currentColor" stroke-width="1" stroke-linecap="round" stroke-linejoin="round" d="M12 21L21 12"/><path fill="none" stroke="currentColor" stroke-width="1" stroke-linecap="round" stroke-linejoin="round" d="M17 21L21 17"/><path fill="none" stroke="currentColor" stroke-width="1" stroke-linecap="round" stroke-linejoin="round" d="M3 17L17 3"/><path fill="none" stroke="currentColor" stroke-width="1" stroke-linecap="round" stroke-linejoin="round" d="M3 12L12 3"/><path fill="none" stroke="currentColor" stroke-width="1" stroke-linecap="round" stroke-linejoin="round" d="M3 7L7 3"/></symbol>
    <symbol id="icon-dimlinear" viewBox="0 0 24 24"><path fill="none" stroke="currentColor" stroke-width="1.5" stroke-linecap="round" stroke-linejoin="round" d="M5 21V3 M19 21V3 M3 12h18 M5 5l-2-2 2-2 M19 5l2-2-2-2"/></symbol>
    <symbol id="icon-dimaligned" viewBox="0 0 24 24"><path fill="none" stroke="currentColor" stroke-width="1.5" stroke-linecap="round" stroke-linejoin="round" d="M6 18L18 6 M4 20l4-4 M20 4l-4 4"/></symbol>
    <symbol id="icon-create-block" viewBox="0 0 24 24"><path fill="none" stroke="currentColor" stroke-width="1.5" stroke-linecap="round" stroke-linejoin="round" d="M3 3h18v18H3z M8 8h8v8H8z M18 6h3m-1.5-1.5v3"/></symbol>
    <symbol id="icon-insert-block" viewBox="0 0 24 24"><path fill="none" stroke="currentColor" stroke-width="1.5" stroke-linecap="round" stroke-linejoin="round" d="M21 15v4a2 2 0 0 1-2 2H5a2 2 0 0 1-2-2v-4 M12 15V3 M9 12l3 3 3-3"/></symbol>
    <symbol id="icon-set-base" viewBox="0 0 24 24"><path fill="none" stroke="currentColor" stroke-width="1.5" stroke-linecap="round" stroke-linejoin="round" d="M12 2 L20 18 H4 Z M12 12 a1.5 1.5 0 1 0 0 0.001Z"/></symbol>
    <symbol id="icon-save-block" viewBox="0 0 24 24"><path fill="none" stroke="currentColor" stroke-width="1.5" stroke-linecap="round" stroke-linejoin="round" d="M19 21H5a2 2 0 0 1-2-2V5a2 2 0 0 1 2-2h11l5 5v11a2 2 0 0 1-2 2z"/><polyline fill="none" stroke="currentColor" stroke-width="1.5" stroke-linecap="round" stroke-linejoin="round" points="17 21 17 13 7 13 7 21"/><polyline fill="none" stroke="currentColor" stroke-width="1.5" stroke-linecap="round" stroke-linejoin="round" points="7 3 7 8 15 8"/></symbol>
    <symbol id="icon-close-editor" viewBox="0 0 24 24"><path fill="none" stroke="currentColor" stroke-width="1.5" stroke-linecap="round" stroke-linejoin="round" d="M18 6L6 18 M6 6l12 12"/></symbol>
    
    <!-- Modification Toolbar -->
    <symbol id="icon-match-properties" viewBox="0 0 24 24"><path fill="none" stroke="currentColor" stroke-width="1.5" stroke-linecap="round" stroke-linejoin="round" d="M9.5 2.5a2.5 2.5 0 0 1 5 0V5h-5V2.5z"/><path fill="none" stroke="currentColor" stroke-width="1.5" stroke-linecap="round" stroke-linejoin="round" d="M6 10v1a3 3 0 0 0 3 3h6a3 3 0 0 0 3-3v-1"/><path fill="none" stroke="currentColor" stroke-width="1.5" stroke-linecap="round" stroke-linejoin="round" d="M6 10h12v7a2 2 0 0 1-2 2H8a2 2 0 0 1-2-2v-7z"/></symbol>
    <symbol id="icon-trim" viewBox="0 0 24 24"><circle fill="none" stroke="currentColor" stroke-width="1.5" stroke-linecap="round" stroke-linejoin="round" cx="7" cy="17" r="3"/><circle fill="none" stroke="currentColor" stroke-width="1.5" stroke-linecap="round" stroke-linejoin="round" cx="7" cy="7" r="3"/><line fill="none" stroke="currentColor" stroke-width="1.5" stroke-linecap="round" stroke-linejoin="round" x1="19" y1="19" x2="8.7" y2="8.7"/><line fill="none" stroke="currentColor" stroke-width="1.5" stroke-linecap="round" stroke-linejoin="round" x1="19" y1="5" x2="8.7" y2="15.3"/></symbol>
    <symbol id="icon-extend" viewBox="0 0 24 24"><path fill="none" stroke="currentColor" stroke-width="1.5" stroke-linecap="round" stroke-linejoin="round" d="M19 5v14"/><path fill="none" stroke="currentColor" stroke-width="1.5" stroke-linecap="round" stroke-linejoin="round" d="M5 12h10"/><path fill="none" stroke="currentColor" stroke-width="1.5" stroke-linecap="round" stroke-linejoin="round" d="M12 9l3 3-3 3"/></symbol>
    <symbol id="icon-offset" viewBox="0 0 24 24"><path fill="none" stroke="currentColor" stroke-width="1.5" stroke-linecap="round" stroke-linejoin="round" d="M4 8V4h4"/><path fill="none" stroke="currentColor" stroke-width="1.5" stroke-linecap="round" stroke-linejoin="round" d="M4 4l7 7"/><path fill="none" stroke="currentColor" stroke-width="1.5" stroke-linecap="round" stroke-linejoin="round" d="M10 20h10V10H10z"/></symbol>
    <symbol id="icon-mirror" viewBox="0 0 24 24"><path fill="none" stroke="currentColor" stroke-width="1.5" stroke-linecap="round" stroke-linejoin="round" d="M12 2v20"/><path fill="none" stroke="currentColor" stroke-width="1.5" stroke-linecap="round" stroke-linejoin="round" d="M3 11l5-3 5 3"/><path fill="none" stroke="currentColor" stroke-width="1.5" stroke-linecap="round" stroke-linejoin="round" d="M21 11l-5-3-5 3"/></symbol>
    <symbol id="icon-fillet" viewBox="0 0 24 24"><path fill="none" stroke="currentColor" stroke-width="1.5" stroke-linecap="round" stroke-linejoin="round" d="M20 20H4V4"/><path fill="none" stroke="currentColor" stroke-width="1.5" stroke-linecap="round" stroke-linejoin="round" d="M20 4v8c0 4.4-3.6 8-8 8"/></symbol>
    <symbol id="icon-chamfer" viewBox="0 0 24 24"><path fill="none" stroke="currentColor" stroke-width="1.5" stroke-linecap="round" stroke-linejoin="round" d="M3 21V3h18"/><line fill="none" stroke="currentColor" stroke-width="1.5" stroke-linecap="round" stroke-linejoin="round" x1="13" y1="3" x2="21" y2="11"/></symbol>
    <symbol id="icon-extrude" viewBox="0 0 24 24"><path fill="none" stroke="currentColor" stroke-width="1.5" stroke-linecap="round" stroke-linejoin="round" d="M4 12V8a2 2 0 0 1 2-2h8a2 2 0 0 1 2 2v4z"/><path fill="none" stroke="currentColor" stroke-width="1.5" stroke-linecap="round" stroke-linejoin="round" d="M4 12l4 4h8l4-4"/><path fill="none" stroke="currentColor" stroke-width="1.5" stroke-linecap="round" stroke-linejoin="round" d="M4 12h16"/><path fill="none" stroke="currentColor" stroke-width="1.5" stroke-linecap="round" stroke-linejoin="round" d="M8 16v4"/><path fill="none" stroke="currentColor" stroke-width="1.5" stroke-linecap="round" stroke-linejoin="round" d="M16 16v4"/></symbol>
    <symbol id="icon-revolve" viewBox="0 0 24 24"><path fill="none" stroke="currentColor" stroke-width="1.5" stroke-linecap="round" stroke-linejoin="round" d="M12 2v20 M16 6a4 4 0 0 1 0 12 M16 6a8 8 0 0 0 0 12"/></symbol>
    <symbol id="icon-cut" viewBox="0 0 24 24"><path fill="none" stroke="currentColor" stroke-width="1.5" stroke-linecap="round" stroke-linejoin="round" d="M16 16H8a4 4 0 0 1-4-4V4h8a4 4 0 0 1 4 4v8z"/><circle cx="15" cy="15" r="5"/></symbol>
    <symbol id="icon-sweep" viewBox="0 0 24 24"><path fill="none" stroke="currentColor" stroke-width="1.5" stroke-linecap="round" stroke-linejoin="round" d="M3 13h6v6H3z"/><path fill="none" stroke="currentColor" stroke-width="1.5" stroke-linecap="round" stroke-linejoin="round" d="M6 13c10-1 12-8 12-11"/></symbol>
    <symbol id="icon-loft" viewBox="0 0 24 24"><path fill="none" stroke="currentColor" stroke-width="1.5" stroke-linecap="round" stroke-linejoin="round" d="M4 18h16 M4 6h16 M4 6l5 12h6l5-12"/></symbol>
    <!-- Precision Toolbar -->
    <symbol id="icon-grid-snap" viewBox="0 0 24 24"><rect fill="none" stroke="currentColor" stroke-width="1.5" stroke-linecap="round" stroke-linejoin="round" width="18" height="18" x="3" y="3" rx="2"/><path fill="none" stroke="currentColor" stroke-width="1.5" stroke-linecap="round" stroke-linejoin="round" d="M3 9h18M3 15h18M9 3v18M15 3v18"/></symbol>
    <symbol id="icon-ortho-mode" viewBox="0 0 24 24"><path fill="none" stroke="currentColor" stroke-width="1.5" stroke-linecap="round" stroke-linejoin="round" d="M18 4H6v12"/><path fill="none" stroke="currentColor" stroke-width="1.5" stroke-linecap="round" stroke-linejoin="round" d="M10 10h8"/></symbol>
    <symbol id="icon-scale-by-ref" viewBox="0 0 24 24"><path fill="none" stroke="currentColor" stroke-width="1.5" stroke-linecap="round" stroke-linejoin="round" d="M3 3h6v6H3z"/><path fill="none" stroke="currentColor" stroke-width="1.5" stroke-linecap="round" stroke-linejoin="round" d="M8 8l13 13"/><path fill="none" stroke="currentColor" stroke-width="1.5" stroke-linecap="round" stroke-linejoin="round" d="M13 3h8v8h-8z"/></symbol>
    <symbol id="icon-rotate-by-ref" viewBox="0 0 24 24"><path fill="none" stroke="currentColor" stroke-width="1.5" stroke-linecap="round" stroke-linejoin="round" d="M3 12a9 9 0 1 0 9-9 9.75 9.75 0 0 0-6.74 2.74L3 8"/><path fill="none" stroke="currentColor" stroke-width="1.5" stroke-linecap="round" stroke-linejoin="round" d="M3 3v5h5"/></symbol>
    <!-- File Toolbar -->
    <symbol id="icon-pdf-underlay" viewBox="0 0 24 24"><path fill="none" stroke="currentColor" stroke-width="1.5" stroke-linecap="round" stroke-linejoin="round" d="M14 2H6a2 2 0 0 0-2 2v16a2 2 0 0 0 2 2h12a2 2 0 0 0 2-2V8z"/><polyline fill="none" stroke="currentColor" stroke-width="1.5" stroke-linecap="round" stroke-linejoin="round" points="14 2 14 8 20 8"/><path fill="none" stroke="currentColor" stroke-width="1.5" stroke-linecap="round" stroke-linejoin="round" d="M9 13h2"/><path fill="none" stroke="currentColor" stroke-width="1.5" stroke-linecap="round" stroke-linejoin="round" d="M13 13h2"/><path fill="none" stroke="currentColor" stroke-width="1.5" stroke-linecap="round" stroke-linejoin="round" d="M9 17h6"/><path fill="none" stroke="currentColor" stroke-width="1.5" stroke-linecap="round" stroke-linejoin="round" d="M9 9h6"/></symbol>
    <symbol id="icon-export-png" viewBox="0 0 24 24"><path fill="none" stroke="currentColor" stroke-width="1.5" stroke-linecap="round" stroke-linejoin="round" d="M14 2H6a2 2 0 0 0-2 2v16a2 2 0 0 0 2 2h12a2 2 0 0 0 2-2V8z"/><polyline fill="none" stroke="currentColor" stroke-width="1.5" stroke-linecap="round" stroke-linejoin="round" points="14 2 14 8 20 8"/><line fill="none" stroke="currentColor" stroke-width="1.5" stroke-linecap="round" stroke-linejoin="round" x1="12" y1="18" x2="12" y2="12"/><polyline fill="none" stroke="currentColor" stroke-width="1.5" stroke-linecap="round" stroke-linejoin="round" points="9 15 12 12 15 15"/><rect fill="none" stroke="currentColor" stroke-width="1.5" stroke-linecap="round" stroke-linejoin="round" x="3" y="12" width="4" height="5" rx="1"/></symbol>
    <symbol id="icon-export-pdf" viewBox="0 0 24 24"><path fill="none" stroke="currentColor" stroke-width="1.5" stroke-linecap="round" stroke-linejoin="round" d="M14 2H6a2 2 0 0 0-2 2v16a2 2 0 0 0 2 2h12a2 2 0 0 0 2-2V8z"/><polyline fill="none" stroke="currentColor" stroke-width="1.5" stroke-linecap="round" stroke-linejoin="round" points="14 2 14 8 20 8"/><path fill="none" stroke="currentColor" stroke-width="1.5" stroke-linecap="round" stroke-linejoin="round" d="M12 18v-6"/><path fill="none" stroke="currentColor" stroke-width="1.5" stroke-linecap="round" stroke-linejoin="round" d="m9 15 3 3 3-3"/></symbol>
    <!-- Stairs Options -->
    <symbol id="icon-ladder" viewBox="0 0 24 24"><path fill="none" stroke="currentColor" stroke-width="1.5" stroke-linecap="round" stroke-linejoin="round" d="M8 3v18"/><path fill="none" stroke="currentColor" stroke-width="1.5" stroke-linecap="round" stroke-linejoin="round" d="M16 3v18"/><path fill="none" stroke="currentColor" stroke-width="1.5" stroke-linecap="round" stroke-linejoin="round" d="M8 7h8"/><path fill="none" stroke="currentColor" stroke-width="1.5" stroke-linecap="round" stroke-linejoin="round" d="M8 12h8"/><path fill="none" stroke="currentColor" stroke-width="1.5" stroke-linecap="round" stroke-linejoin="round" d="M8 17h8"/></symbol>
    <!-- Symbol Palette -->
    <symbol id="icon-fire-extinguisher" viewBox="0 0 24 24"><path fill="none" stroke="currentColor" stroke-width="1.5" stroke-linecap="round" stroke-linejoin="round" d="M12 8V4a2 2 0 0 0-2-2H8a2 2 0 0 0-2 2v4"/><path fill="none" stroke="currentColor" stroke-width="1.5" stroke-linecap="round" stroke-linejoin="round" d="M6 8h8v12a2 2 0 0 1-2 2H8a2 2 0 0 1-2-2V8z"/><path fill="none" stroke="currentColor" stroke-width="1.5" stroke-linecap="round" stroke-linejoin="round" d="M14 8h2a2 2 0 0 1 2 2v2a2 2 0 0 1-2 2h-2"/></symbol>
    <symbol id="icon-exit" viewBox="0 0 24 24"><path fill="none" stroke="currentColor" stroke-width="1.5" stroke-linecap="round" stroke-linejoin="round" d="M15 3h4a2 2 0 0 1 2 2v14a2 2 0 0 1-2 2h-4"/><polyline fill="none" stroke="currentColor" stroke-width="1.5" stroke-linecap="round" stroke-linejoin="round" points="10 17 15 12 10 7"/><line fill="none" stroke="currentColor" stroke-width="1.5" stroke-linecap="round" stroke-linejoin="round" x1="15" y1="12" x2="3" y2="12"/></symbol>
    <symbol id="icon-first-aid" viewBox="0 0 24 24"><path fill="none" stroke="currentColor" stroke-width="1.5" stroke-linecap="round" stroke-linejoin="round" d="M20 4H4a2 2 0 0 0-2 2v12a2 2 0 0 0 2 2h16a2 2 0 0 0 2-2V6a2 2 0 0 0-2-2z"/><line fill="none" stroke="currentColor" stroke-width="1.5" stroke-linecap="round" stroke-linejoin="round" x1="12" y1="8" x2="12" y2="16"/><line fill="none" stroke="currentColor" stroke-width="1.5" stroke-linecap="round" stroke-linejoin="round" x1="8" y1="12" x2="16" y2="12"/></symbol>
    <symbol id="icon-fire-hydrant" viewBox="0 0 24 24"><path fill="none" stroke="currentColor" stroke-width="1.5" stroke-linecap="round" stroke-linejoin="round" d="M12 22s8-4 8-10V5l-8-3-8 3v7c0 6 8 10 8 10z"/><path fill="none" stroke="currentColor" stroke-width="1.5" stroke-linecap="round" stroke-linejoin="round" d="M12 10v6"/><path fill="none" stroke="currentColor" stroke-width="1.5" stroke-linecap="round" stroke-linejoin="round" d="M9 13h6"/></symbol>
    <symbol id="icon-electrical-panel" viewBox="0 0 24 24"><path fill="none" stroke="currentColor" stroke-width="1.5" stroke-linecap="round" stroke-linejoin="round" d="M13.4 2.6 3 14h9l-2 8 10-12h-9z"/></symbol>
    <symbol id="icon-column" viewBox="0 0 24 24"><rect fill="none" stroke="currentColor" stroke-width="1.5" stroke-linecap="round" stroke-linejoin="round" x="4" y="4" width="16" height="16" rx="1"/><line fill="none" stroke="currentColor" stroke-width="1.5" stroke-linecap="round" stroke-linejoin="round" x1="4" y1="4" x2="20" y2="20"/><line fill="none" stroke="currentColor" stroke-width="1.5" stroke-linecap="round" stroke-linejoin="round" x1="20" y1="4" x2="4" y2="20"/></symbol>
    <!-- Topo Palette -->
    <symbol id="icon-geodetic-point" viewBox="0 0 24 24"><path fill="none" stroke="currentColor" stroke-width="1.5" stroke-linecap="round" stroke-linejoin="round" d="M12 2 L20 18 H4 Z"/><circle fill="currentColor" stroke="none" cx="12" cy="12" r="1.5"/></symbol>
    <symbol id="icon-manhole" viewBox="0 0 24 24"><circle fill="none" stroke="currentColor" stroke-width="1.5" stroke-linecap="round" stroke-linejoin="round" cx="12" cy="12" r="8"/></symbol>
    <symbol id="icon-power-pole" viewBox="0 0 24 24"><circle fill="none" stroke="currentColor" stroke-width="1.5" stroke-linecap="round" stroke-linejoin="round" cx="12" cy="12" r="6"/><line fill="none" stroke="currentColor" stroke-width="1.5" stroke-linecap="round" stroke-linejoin="round" x1="12" y1="6" x2="12" y2="18"/><line fill="none" stroke="currentColor" stroke-width="1.5" stroke-linecap="round" stroke-linejoin="round" x1="8" y1="9" x2="16" y2="9"/><line fill="none" stroke="currentColor" stroke-width="1.5" stroke-linecap="round" stroke-linejoin="round" x1="8" y1="15" x2="16" y2="15"/></symbol>
    <symbol id="icon-lamppost" viewBox="0 0 24 24"><circle fill="none" stroke="currentColor" stroke-width="1.5" stroke-linecap="round" stroke-linejoin="round" cx="12" cy="12" r="6"/><line fill="none" stroke="currentColor" stroke-width="1.5" stroke-linecap="round" stroke-linejoin="round" x1="12" y1="6" x2="12" y2="3"/><line fill="none" stroke="currentColor" stroke-width="1.5" stroke-linecap="round" stroke-linejoin="round" x1="12" y1="18" x2="12" y2="21"/><line fill="none" stroke="currentColor" stroke-width="1.5" stroke-linecap="round" stroke-linejoin="round" x1="6" y1="12" x2="3" y2="12"/><line fill="none" stroke="currentColor" stroke-width="1.5" stroke-linecap="round" stroke-linejoin="round" x1="18" y1="12" x2="21" y2="12"/></symbol>
    <symbol id="icon-deciduous-tree" viewBox="0 0 24 24"><circle fill="none" stroke="currentColor" stroke-width="1.5" stroke-linecap="round" stroke-linejoin="round" cx="12" cy="12" r="8"/></symbol>
    <symbol id="icon-coniferous-tree" viewBox="0 0 24 24"><path fill="none" stroke="currentColor" stroke-width="1.5" stroke-linecap="round" stroke-linejoin="round" d="M12 2 L15 9 L22 9 L17 14 L19 21 L12 17 L5 21 L7 14 L2 9 L9 9 Z"/></symbol>
    <!-- UI Elements -->
    <symbol id="icon-close" viewBox="0 0 24 24"><line fill="none" stroke="currentColor" stroke-width="2" stroke-linecap="round" stroke-linejoin="round" x1="18" y1="6" x2="6" y2="18"/><line fill="none" stroke="currentColor" stroke-width="2" stroke-linecap="round" stroke-linejoin="round" x1="6" y1="6" x2="18" y2="18"/></symbol>
    <symbol id="icon-add" viewBox="0 0 24 24"><line fill="none" stroke="currentColor" stroke-width="1.5" stroke-linecap="round" stroke-linejoin="round" x1="12" y1="5" x2="12" y2="19"/><line fill="none" stroke="currentColor" stroke-width="1.5" stroke-linecap="round" stroke-linejoin="round" x1="5" y1="12" x2="19" y2="12"/></symbol>
    <symbol id="icon-delete" viewBox="0 0 24 24"><polyline fill="none" stroke="currentColor" stroke-width="1.5" stroke-linecap="round" stroke-linejoin="round" points="3 6 5 6 21 6"/><path fill="none" stroke="currentColor" stroke-width="1.5" stroke-linecap="round" stroke-linejoin="round" d="M19 6v14a2 2 0 0 1-2 2H7a2 2 0 0 1-2-2V6m3 0V4a2 2 0 0 1 2-2h4a2 2 0 0 1 2 2v2"/><line fill="none" stroke="currentColor" stroke-width="1.5" stroke-linecap="round" stroke-linejoin="round" x1="10" y1="11" x2="10" y2="17"/><line fill="none" stroke="currentColor" stroke-width="1.5" stroke-linecap="round" stroke-linejoin="round" x1="14" y1="11" x2="14" y2="17"/></symbol>
    <symbol id="icon-move-up" viewBox="0 0 24 24"><line fill="none" stroke="currentColor" stroke-width="1.5" stroke-linecap="round" stroke-linejoin="round" x1="12" y1="19" x2="12" y2="5"/><polyline fill="none" stroke="currentColor" stroke-width="1.5" stroke-linecap="round" stroke-linejoin="round" points="5 12 12 5 19 12"/></symbol>
    <symbol id="icon-move-down" viewBox="0 0 24 24"><line fill="none" stroke="currentColor" stroke-width="1.5" stroke-linecap="round" stroke-linejoin="round" x1="12" y1="5" x2="12" y2="19"/><polyline fill="none" stroke="currentColor" stroke-width="1.5" stroke-linecap="round" stroke-linejoin="round" points="19 12 12 19 5 12"/></symbol>
    <symbol id="icon-visibility-on" viewBox="0 0 24 24"><path fill="none" stroke="currentColor" stroke-width="2" stroke-linecap="round" stroke-linejoin="round" d="M1 12s4-8 11-8 11 8 11 8-4 8-11 8-11-8-11-8z"/><circle fill="none" stroke="currentColor" stroke-width="2" stroke-linecap="round" stroke-linejoin="round" cx="12" cy="12" r="3"/></symbol>
    <symbol id="icon-visibility-off" viewBox="0 0 24 24"><path fill="none" stroke="currentColor" stroke-width="2" stroke-linecap="round" stroke-linejoin="round" d="M9.88 9.88a3 3 0 1 0 4.24 4.24"/><path fill="none" stroke="currentColor" stroke-width="2" stroke-linecap="round" stroke-linejoin="round" d="M10.73 5.08A10.43 10.43 0 0 1 12 5c7 0 11 8 11 8a18.5 18.5 0 0 1-2.16 3.19m-6.72-1.07a3 3 0 0 0-4.24-4.24"/><path fill="none" stroke="currentColor" stroke-width="2" stroke-linecap="round" stroke-linejoin="round" d="M1 12s4-8 11-8a10.47 10.47 0 0 1 1.27.12"/><path fill="none" stroke="currentColor" stroke-width="2" stroke-linecap="round" stroke-linejoin="round" d="m1 1 22 22"/></symbol>
    <symbol id="icon-lock" viewBox="0 0 24 24"><rect fill="none" stroke="currentColor" stroke-width="2" stroke-linecap="round" stroke-linejoin="round" x="3" y="11" width="18" height="11" rx="2" ry="2"/><path fill="none" stroke="currentColor" stroke-width="2" stroke-linecap="round" stroke-linejoin="round" d="M7 11V7a5 5 0 0 1 10 0v4"/></symbol>
    <symbol id="icon-unlock" viewBox="0 0 24 24"><rect fill="none" stroke="currentColor" stroke-width="2" stroke-linecap="round" stroke-linejoin="round" x="3" y="11" width="18" height="11" rx="2" ry="2"/><path fill="none" stroke="currentColor" stroke-width="2" stroke-linecap="round" stroke-linejoin="round" d="M7 11V7a5 5 0 0 1 9.9-1"/></symbol>
    <symbol id="icon-object-snap" viewBox="0 0 24 24"><path fill="none" stroke="currentColor" stroke-width="1.5" stroke-linecap="round" stroke-linejoin="round" d="M4 4h16v16H4z"/><path fill="none" stroke="currentColor" stroke-width="1.5" stroke-linecap="round" stroke-linejoin="round" d="M13 13h6v6h-6z"/></symbol>
    <!-- Object Snap Icons -->
    <symbol id="icon-snap-endpoint" viewBox="0 0 24 24"><rect fill="none" stroke="currentColor" stroke-width="1.5" stroke-linecap="round" stroke-linejoin="round" x="7" y="7" width="10" height="10"/></symbol>
    <symbol id="icon-snap-midpoint" viewBox="0 0 24 24"><path fill="none" stroke="currentColor" stroke-width="1.5" stroke-linecap="round" stroke-linejoin="round" d="M12 21 5 9h14Z"/></symbol>
    <symbol id="icon-snap-center" viewBox="0 0 24 24"><circle fill="none" stroke="currentColor" stroke-width="1.5" stroke-linecap="round" stroke-linejoin="round" cx="12" cy="12" r="5"/></symbol>
    <symbol id="icon-snap-intersection" viewBox="0 0 24 24"><line fill="none" stroke="currentColor" stroke-width="1.5" stroke-linecap="round" stroke-linejoin="round" x1="6" y1="6" x2="18" y2="18"/><line fill="none" stroke="currentColor" stroke-width="1.5" stroke-linecap="round" stroke-linejoin="round" x1="6" y1="18" x2="18" y2="6"/></symbol>
    <symbol id="icon-snap-perpendicular" viewBox="0 0 24 24"><path fill="none" stroke="currentColor" stroke-width="1.5" stroke-linecap="round" stroke-linejoin="round" d="M18 6H8a2 2 0 0 0-2 2v8"/><path fill="none" stroke="currentColor" stroke-width="1.5" stroke-linecap="round" stroke-linejoin="round" d="M12 12h8"/></symbol>
    <symbol id="icon-snap-quadrant" viewBox="0 0 24 24"><circle fill="none" stroke="currentColor" stroke-width="1.5" stroke-linecap="round" stroke-linejoin="round" cx="12" cy="12" r="7"/><path fill="none" stroke="currentColor" stroke-width="1.5" stroke-linecap="round" stroke-linejoin="round" d="M12 3.5 13.5 5 12 6.5 10.5 5z M12 17.5 13.5 19 12 20.5 10.5 19z M3.5 12 5 10.5 6.5 12 5 13.5z M17.5 12 19 10.5 20.5 12 19 13.5z"/></symbol>
    <symbol id="icon-snap-tangent" viewBox="0 0 24 24"><circle fill="none" stroke="currentColor" stroke-width="1.5" stroke-linecap="round" stroke-linejoin="round" cx="10" cy="14" r="5"/><path fill="none" stroke="currentColor" stroke-width="1.5" stroke-linecap="round" stroke-linejoin="round" d="M18 4v16"/></symbol>
    <symbol id="icon-snap-nearest" viewBox="0 0 24 24"><path fill="none" stroke="currentColor" stroke-width="1.5" stroke-linecap="round" stroke-linejoin="round" d=" M 6 6 L 10 12 L 6 18 M 18 6 L 14 12 L 18 18"/></symbol>
</svg>
